# xmcd
#
# Track frame offsets:
#	150
#	13624
#	26806
#	39506
#	52280
#	66245
#	80049
#	92864
#	105861
#	116225
#	128733
#	141729
#	154193
#	169439
#	182639
#	195752
#	207810
#	219862
#	232290
#	244646
#	258325
#	272471
#
# Disc length: 3795 seconds
#
# Revision: 1
# Processed by: cddbd v1.5.2PL0 Copyright (c) Steve Scherf et al.
# Submitted via: audiograbber 1.83.01
#
DISCID=410ed116
DTITLE=Naiara Azevedo - Contraste
DYEAR=2017
DGENRE=Sertanejas
TTITLE0=Uma Pegada Que Desgrama
TTITLE1=Avisa Que Eu Cheguei (Part. Esp. Ivete Sangalo)
TTITLE2=Printou Nossa Intimidade
TTITLE3=Mantendo Distância
TTITLE4=Vira A Faixa Cidadão (Part. Esp. Gusttavo Lima)
TTITLE5=Contato Bloqueado
TTITLE6=Dá Uma Segurada
TTITLE7=Que Coração Você Tem
TTITLE8=Maldade Dobrada (Part. Esp. Wesley Safadão)
TTITLE9=Mordida, Beijo E Tapa
TTITLE10=Mexeu Com Todas
TTITLE11=Será Que A Gente Se Acostuma
TTITLE12=Nem Fala Tchau, Nem Fala Oi
TTITLE13=Bom De Cama
TTITLE14=Coração De Muleta
TTITLE15=Caminhão De Lágrimas
TTITLE16=Mentalmente (Part. Esp. MC Kevinho)
TTITLE17=Perfume Importado
TTITLE18=Cor De Cereja
TTITLE19=Tremi Na Base
TTITLE20=Nível De Carência
TTITLE21=Deus Te Ouça
EXTD=
EXTT0=
EXTT1=
EXTT2=
EXTT3=
EXTT4=
EXTT5=
EXTT6=
EXTT7=
EXTT8=
EXTT9=
EXTT10=
EXTT11=
EXTT12=
EXTT13=
EXTT14=
EXTT15=
EXTT16=
EXTT17=
EXTT18=
EXTT19=
EXTT20=
EXTT21=
PLAYORDER=
